<svg xmlns="http://www.w3.org/2000/svg" viewBox="0 0 256 256">
  <defs>
    <linearGradient id="bg" x1="0" y1="0" x2="1" y2="1">
      <stop offset="0" stop-color="#0D1B2A"/>
      <stop offset="1" stop-color="#1B263B"/>
    </linearGradient>
    <linearGradient id="steel" x1="0" y1="0" x2="1" y2="1">
      <stop offset="0" stop-color="#E0E1DD"/>
      <stop offset="1" stop-color="#A9B4C2"/>
    </linearGradient>
    <linearGradient id="accent" x1="0" y1="0" x2="1" y2="1">
      <stop offset="0" stop-color="#00C2A8"/>
      <stop offset="1" stop-color="#48E5C2"/>
    </linearGradient>
    <filter id="soft" x="-20%" y="-20%" width="140%" height="140%">
      <feDropShadow dx="0" dy="8" stdDeviation="10" flood-color="#000" flood-opacity=".28"/>
    </filter>
  </defs>

  <rect x="16" y="16" width="224" height="224" rx="52" fill="url(#bg)" filter="url(#soft)"/>
  <rect x="36" y="36" width="148" height="184" rx="20" fill="#243447" stroke="url(#steel)" stroke-width="3"/>
  <path d="M148 36v42h36" fill="none" stroke="url(#steel)" stroke-width="3"/>

  <rect x="56" y="74" width="88" height="6" rx="3" fill="url(#accent)" opacity=".9"/>
  <rect x="56" y="92" width="104" height="6" rx="3" fill="#7FA3B8" opacity=".75"/>
  <rect x="56" y="110" width="72" height="6" rx="3" fill="#7FA3B8" opacity=".55"/>

  <rect x="56" y="140" width="32" height="22" rx="6" fill="#2F4F64"/>
  <rect x="92" y="140" width="42" height="22" rx="6" fill="#335A74"/>
  <rect x="138" y="140" width="22" height="22" rx="6" fill="url(#accent)"/>

  <circle cx="178" cy="176" r="28" fill="none" stroke="url(#accent)" stroke-width="8"/>
  <line x1="198" y1="196" x2="220" y2="218" stroke="url(#accent)" stroke-width="9" stroke-linecap="round"/>
</svg>